<?xml version="1.0" encoding="UTF-8" standalone="no"?><svg xmlns="http://www.w3.org/2000/svg" xmlns:xlink="http://www.w3.org/1999/xlink" contentStyleType="text/css" height="746px" preserveAspectRatio="none" style="width:477px;height:746px;background:#FFFFFF;" version="1.1" viewBox="0 0 477 746" width="477px" zoomAndPan="magnify"><defs/><g><!--MD5=[09db3cff0c1c3cebeaa1da8d26a70980]
class Domanda--><g id="elem_Domanda"><rect codeLine="1" fill="#F1F1F1" height="113.1875" id="Domanda" rx="2.5" ry="2.5" style="stroke:#181818;stroke-width:0.5;" width="163" x="7" y="453"/><ellipse cx="50.8" cy="469" fill="#ADD1B2" rx="11" ry="11" style="stroke:#181818;stroke-width:1.0;"/><path d="M53.7688,474.6406 Q53.1906,474.9375 52.55,475.0781 Q51.9094,475.2344 51.2063,475.2344 Q48.7063,475.2344 47.3781,473.5938 Q46.0656,471.9375 46.0656,468.8125 Q46.0656,465.6875 47.3781,464.0313 Q48.7063,462.375 51.2063,462.375 Q51.9094,462.375 52.55,462.5313 Q53.2063,462.6875 53.7688,462.9844 L53.7688,465.7031 Q53.1438,465.125 52.55,464.8594 Q51.9563,464.5781 51.3313,464.5781 Q49.9875,464.5781 49.3,465.6563 Q48.6125,466.7188 48.6125,468.8125 Q48.6125,470.9063 49.3,471.9844 Q49.9875,473.0469 51.3313,473.0469 Q51.9563,473.0469 52.55,472.7813 Q53.1438,472.5 53.7688,471.9219 L53.7688,474.6406 Z " fill="#000000"/><text fill="#000000" font-family="sans-serif" font-size="14" lengthAdjust="spacing" textLength="67" x="71.2" y="473.8467">Domanda</text><line style="stroke:#181818;stroke-width:0.5;" x1="8" x2="169" y1="485" y2="485"/><ellipse cx="18" cy="498.6484" fill="none" rx="3" ry="3" style="stroke:#038048;stroke-width:1.0;"/><text fill="#000000" font-family="sans-serif" font-size="14" lengthAdjust="spacing" textLength="58" x="27" y="501.9951">str testo</text><ellipse cx="18" cy="514.9453" fill="none" rx="3" ry="3" style="stroke:#038048;stroke-width:1.0;"/><text fill="#000000" font-family="sans-serif" font-size="14" lengthAdjust="spacing" textLength="109" x="27" y="518.292">lista[str] opzioni</text><ellipse cx="18" cy="531.2422" fill="none" rx="3" ry="3" style="stroke:#038048;stroke-width:1.0;"/><text fill="#000000" font-family="sans-serif" font-size="14" lengthAdjust="spacing" textLength="137" x="27" y="534.5889">int risposta_corretta</text><ellipse cx="18" cy="547.5391" fill="none" rx="3" ry="3" style="stroke:#038048;stroke-width:1.0;"/><text fill="#000000" font-family="sans-serif" font-size="14" lengthAdjust="spacing" textLength="56" x="27" y="550.8857">int punti</text><line style="stroke:#181818;stroke-width:0.5;" x1="8" x2="169" y1="558.1875" y2="558.1875"/></g><!--MD5=[67f5bdafb709b09f80738cdb2228938c]
class Quiz--><g id="elem_Quiz"><rect codeLine="8" fill="#F1F1F1" height="194.6719" id="Quiz" rx="2.5" ry="2.5" style="stroke:#181818;stroke-width:0.5;" width="255" x="113" y="181"/><ellipse cx="220.75" cy="197" fill="#ADD1B2" rx="11" ry="11" style="stroke:#181818;stroke-width:1.0;"/><path d="M223.7188,202.6406 Q223.1406,202.9375 222.5,203.0781 Q221.8594,203.2344 221.1563,203.2344 Q218.6563,203.2344 217.3281,201.5938 Q216.0156,199.9375 216.0156,196.8125 Q216.0156,193.6875 217.3281,192.0313 Q218.6563,190.375 221.1563,190.375 Q221.8594,190.375 222.5,190.5313 Q223.1563,190.6875 223.7188,190.9844 L223.7188,193.7031 Q223.0938,193.125 222.5,192.8594 Q221.9063,192.5781 221.2813,192.5781 Q219.9375,192.5781 219.25,193.6563 Q218.5625,194.7188 218.5625,196.8125 Q218.5625,198.9063 219.25,199.9844 Q219.9375,201.0469 221.2813,201.0469 Q221.9063,201.0469 222.5,200.7813 Q223.0938,200.5 223.7188,199.9219 L223.7188,202.6406 Z " fill="#000000"/><text fill="#000000" font-family="sans-serif" font-size="14" lengthAdjust="spacing" textLength="31" x="241.25" y="201.8467">Quiz</text><line style="stroke:#181818;stroke-width:0.5;" x1="114" x2="367" y1="213" y2="213"/><ellipse cx="124" cy="226.6484" fill="none" rx="3" ry="3" style="stroke:#038048;stroke-width:1.0;"/><text fill="#000000" font-family="sans-serif" font-size="14" lengthAdjust="spacing" textLength="77" x="133" y="229.9951">str file_quiz</text><ellipse cx="124" cy="242.9453" fill="none" rx="3" ry="3" style="stroke:#038048;stroke-width:1.0;"/><text fill="#000000" font-family="sans-serif" font-size="14" lengthAdjust="spacing" textLength="174" x="133" y="246.292">lista[Domanda] domande</text><ellipse cx="124" cy="259.2422" fill="none" rx="3" ry="3" style="stroke:#038048;stroke-width:1.0;"/><text fill="#000000" font-family="sans-serif" font-size="14" lengthAdjust="spacing" textLength="92" x="133" y="262.5889">int punteggio</text><line style="stroke:#181818;stroke-width:0.5;" x1="114" x2="367" y1="269.8906" y2="269.8906"/><ellipse cx="124" cy="283.5391" fill="#84BE84" rx="3" ry="3" style="stroke:#038048;stroke-width:1.0;"/><text fill="#000000" font-family="sans-serif" font-size="14" lengthAdjust="spacing" textLength="157" x="133" y="286.8857">bool carica_domande()</text><ellipse cx="124" cy="299.8359" fill="#84BE84" rx="3" ry="3" style="stroke:#038048;stroke-width:1.0;"/><text fill="#000000" font-family="sans-serif" font-size="14" lengthAdjust="spacing" textLength="151" x="133" y="303.1826">bool salva_domande()</text><ellipse cx="124" cy="316.1328" fill="#84BE84" rx="3" ry="3" style="stroke:#038048;stroke-width:1.0;"/><text fill="#000000" font-family="sans-serif" font-size="14" lengthAdjust="spacing" textLength="175" x="133" y="319.4795">bool aggiungi_domanda()</text><ellipse cx="124" cy="332.4297" fill="#84BE84" rx="3" ry="3" style="stroke:#038048;stroke-width:1.0;"/><text fill="#000000" font-family="sans-serif" font-size="14" lengthAdjust="spacing" textLength="229" x="133" y="335.7764">bool mostra_domanda(domanda)</text><ellipse cx="124" cy="348.7266" fill="#84BE84" rx="3" ry="3" style="stroke:#038048;stroke-width:1.0;"/><text fill="#000000" font-family="sans-serif" font-size="14" lengthAdjust="spacing" textLength="81" x="133" y="352.0732">bool gioca()</text><ellipse cx="124" cy="365.0234" fill="#84BE84" rx="3" ry="3" style="stroke:#038048;stroke-width:1.0;"/><text fill="#000000" font-family="sans-serif" font-size="14" lengthAdjust="spacing" textLength="157" x="133" y="368.3701">bool menu_principale()</text></g><!--MD5=[f0268dd29ee89052933f031546cb1cab]
class Menu--><g id="elem_Menu"><rect codeLine="20" fill="#F1F1F1" height="96.8906" id="Menu" rx="2.5" ry="2.5" style="stroke:#181818;stroke-width:0.5;" width="135" x="173" y="7"/><ellipse cx="216.8" cy="23" fill="#ADD1B2" rx="11" ry="11" style="stroke:#181818;stroke-width:1.0;"/><path d="M219.7688,28.6406 Q219.1906,28.9375 218.55,29.0781 Q217.9094,29.2344 217.2063,29.2344 Q214.7063,29.2344 213.3781,27.5938 Q212.0656,25.9375 212.0656,22.8125 Q212.0656,19.6875 213.3781,18.0313 Q214.7063,16.375 217.2063,16.375 Q217.9094,16.375 218.55,16.5313 Q219.2063,16.6875 219.7688,16.9844 L219.7688,19.7031 Q219.1438,19.125 218.55,18.8594 Q217.9563,18.5781 217.3313,18.5781 Q215.9875,18.5781 215.3,19.6563 Q214.6125,20.7188 214.6125,22.8125 Q214.6125,24.9063 215.3,25.9844 Q215.9875,27.0469 217.3313,27.0469 Q217.9563,27.0469 218.55,26.7813 Q219.1438,26.5 219.7688,25.9219 L219.7688,28.6406 Z " fill="#000000"/><text fill="#000000" font-family="sans-serif" font-size="14" lengthAdjust="spacing" textLength="39" x="237.2" y="27.8467">Menu</text><line style="stroke:#181818;stroke-width:0.5;" x1="174" x2="307" y1="39" y2="39"/><ellipse cx="184" cy="52.6484" fill="none" rx="3" ry="3" style="stroke:#038048;stroke-width:1.0;"/><text fill="#000000" font-family="sans-serif" font-size="14" lengthAdjust="spacing" textLength="56" x="193" y="55.9951">str titolo</text><ellipse cx="184" cy="68.9453" fill="none" rx="3" ry="3" style="stroke:#038048;stroke-width:1.0;"/><text fill="#000000" font-family="sans-serif" font-size="14" lengthAdjust="spacing" textLength="109" x="193" y="72.292">lista[str] opzioni</text><ellipse cx="184" cy="85.2422" fill="none" rx="3" ry="3" style="stroke:#038048;stroke-width:1.0;"/><text fill="#000000" font-family="sans-serif" font-size="14" lengthAdjust="spacing" textLength="71" x="193" y="88.5889">bool attivo</text><line style="stroke:#181818;stroke-width:0.5;" x1="174" x2="307" y1="95.8906" y2="95.8906"/></g><!--MD5=[0e005bfa9b2efe07274e728514cf4c87]
class Gioco--><g id="elem_Gioco"><rect codeLine="26" fill="#F1F1F1" height="96.8906" id="Gioco" rx="2.5" ry="2.5" style="stroke:#181818;stroke-width:0.5;" width="171" x="79" y="643"/><ellipse cx="140.25" cy="659" fill="#ADD1B2" rx="11" ry="11" style="stroke:#181818;stroke-width:1.0;"/><path d="M143.2188,664.6406 Q142.6406,664.9375 142,665.0781 Q141.3594,665.2344 140.6563,665.2344 Q138.1563,665.2344 136.8281,663.5938 Q135.5156,661.9375 135.5156,658.8125 Q135.5156,655.6875 136.8281,654.0313 Q138.1563,652.375 140.6563,652.375 Q141.3594,652.375 142,652.5313 Q142.6563,652.6875 143.2188,652.9844 L143.2188,655.7031 Q142.5938,655.125 142,654.8594 Q141.4063,654.5781 140.7813,654.5781 Q139.4375,654.5781 138.75,655.6563 Q138.0625,656.7188 138.0625,658.8125 Q138.0625,660.9063 138.75,661.9844 Q139.4375,663.0469 140.7813,663.0469 Q141.4063,663.0469 142,662.7813 Q142.5938,662.5 143.2188,661.9219 L143.2188,664.6406 Z " fill="#000000"/><text fill="#000000" font-family="sans-serif" font-size="14" lengthAdjust="spacing" textLength="40" x="160.75" y="663.8467">Gioco</text><line style="stroke:#181818;stroke-width:0.5;" x1="80" x2="249" y1="675" y2="675"/><ellipse cx="90" cy="688.6484" fill="none" rx="3" ry="3" style="stroke:#038048;stroke-width:1.0;"/><text fill="#000000" font-family="sans-serif" font-size="14" lengthAdjust="spacing" textLength="138" x="99" y="691.9951">int punteggio_totale</text><ellipse cx="90" cy="704.9453" fill="none" rx="3" ry="3" style="stroke:#038048;stroke-width:1.0;"/><text fill="#000000" font-family="sans-serif" font-size="14" lengthAdjust="spacing" textLength="92" x="99" y="708.292">bool in_corso</text><ellipse cx="90" cy="721.2422" fill="none" rx="3" ry="3" style="stroke:#038048;stroke-width:1.0;"/><text fill="#000000" font-family="sans-serif" font-size="14" lengthAdjust="spacing" textLength="145" x="99" y="724.5889">datetime data_partita</text><line style="stroke:#181818;stroke-width:0.5;" x1="80" x2="249" y1="731.8906" y2="731.8906"/></g><!--MD5=[b9fa9655ab18ab3713357c00b0eed318]
class GestoreFile--><g id="elem_GestoreFile"><rect codeLine="32" fill="#F1F1F1" height="113.1875" id="GestoreFile" rx="2.5" ry="2.5" style="stroke:#181818;stroke-width:0.5;" width="146" x="324.5" y="453"/><ellipse cx="355.25" cy="469" fill="#ADD1B2" rx="11" ry="11" style="stroke:#181818;stroke-width:1.0;"/><path d="M358.2188,474.6406 Q357.6406,474.9375 357,475.0781 Q356.3594,475.2344 355.6563,475.2344 Q353.1563,475.2344 351.8281,473.5938 Q350.5156,471.9375 350.5156,468.8125 Q350.5156,465.6875 351.8281,464.0313 Q353.1563,462.375 355.6563,462.375 Q356.3594,462.375 357,462.5313 Q357.6563,462.6875 358.2188,462.9844 L358.2188,465.7031 Q357.5938,465.125 357,464.8594 Q356.4063,464.5781 355.7813,464.5781 Q354.4375,464.5781 353.75,465.6563 Q353.0625,466.7188 353.0625,468.8125 Q353.0625,470.9063 353.75,471.9844 Q354.4375,473.0469 355.7813,473.0469 Q356.4063,473.0469 357,472.7813 Q357.5938,472.5 358.2188,471.9219 L358.2188,474.6406 Z " fill="#000000"/><text fill="#000000" font-family="sans-serif" font-size="14" lengthAdjust="spacing" textLength="79" x="372.75" y="473.8467">GestoreFile</text><line style="stroke:#181818;stroke-width:0.5;" x1="325.5" x2="469.5" y1="485" y2="485"/><ellipse cx="335.5" cy="498.6484" fill="none" rx="3" ry="3" style="stroke:#038048;stroke-width:1.0;"/><text fill="#000000" font-family="sans-serif" font-size="14" lengthAdjust="spacing" textLength="84" x="344.5" y="501.9951">str percorso</text><ellipse cx="335.5" cy="514.9453" fill="none" rx="3" ry="3" style="stroke:#038048;stroke-width:1.0;"/><text fill="#000000" font-family="sans-serif" font-size="14" lengthAdjust="spacing" textLength="87" x="344.5" y="518.292">str encoding</text><line style="stroke:#181818;stroke-width:0.5;" x1="325.5" x2="469.5" y1="525.5938" y2="525.5938"/><ellipse cx="335.5" cy="539.2422" fill="#84BE84" rx="3" ry="3" style="stroke:#038048;stroke-width:1.0;"/><text fill="#000000" font-family="sans-serif" font-size="14" lengthAdjust="spacing" textLength="114" x="344.5" y="542.5889">bool salva_json()</text><ellipse cx="335.5" cy="555.5391" fill="#84BE84" rx="3" ry="3" style="stroke:#038048;stroke-width:1.0;"/><text fill="#000000" font-family="sans-serif" font-size="14" lengthAdjust="spacing" textLength="120" x="344.5" y="558.8857">bool carica_json()</text></g><!--MD5=[396a031bcd443f0cdeca9faf429dd86c]
link Quiz to Domanda--><g id="link_Quiz_Domanda"><path codeLine="39" d="M176.26,376.28 C158.92,402.41 140.74,429.79 125.46,452.82 " fill="none" id="Quiz-Domanda" style="stroke:#181818;stroke-width:1.0;"/><text fill="#000000" font-family="sans-serif" font-size="13" lengthAdjust="spacing" textLength="53" x="156.5" y="419.0669">gestisce</text><text fill="#000000" font-family="sans-serif" font-size="13" lengthAdjust="spacing" textLength="8" x="163.4619" y="395.7656">1</text><text fill="#000000" font-family="sans-serif" font-size="13" lengthAdjust="spacing" textLength="7" x="122.5379" y="442.0616">*</text></g><!--MD5=[470b588a998048b51e1a0c75c2e52b53]
link Menu to Quiz--><g id="link_Menu_Quiz"><path codeLine="40" d="M240.5,104.18 C240.5,126.64 240.5,154.29 240.5,180.85 " fill="none" id="Menu-Quiz" style="stroke:#181818;stroke-width:1.0;"/><text fill="#000000" font-family="sans-serif" font-size="13" lengthAdjust="spacing" textLength="46" x="241.5" y="147.0669">mostra</text><text fill="#000000" font-family="sans-serif" font-size="13" lengthAdjust="spacing" textLength="8" x="231.9625" y="123.8124">1</text><text fill="#000000" font-family="sans-serif" font-size="13" lengthAdjust="spacing" textLength="8" x="232.1938" y="169.884">1</text></g><!--MD5=[f449864c30120aa36a636f0cd5759ab3]
link Quiz to Gioco--><g id="link_Quiz_Gioco"><path codeLine="41" d="M243.01,376.26 C242.09,444.07 235.4,535.97 210.5,613 C207.23,623.12 202.45,633.34 197.19,642.88 " fill="none" id="Quiz-Gioco" style="stroke:#181818;stroke-width:1.0;"/><text fill="#000000" font-family="sans-serif" font-size="13" lengthAdjust="spacing" textLength="47" x="240.5" y="514.0669">esegue</text><text fill="#000000" font-family="sans-serif" font-size="13" lengthAdjust="spacing" textLength="8" x="234.9052" y="395.7442">1</text><text fill="#000000" font-family="sans-serif" font-size="13" lengthAdjust="spacing" textLength="8" x="193.2245" y="632.072">1</text></g><!--MD5=[b8d9154a1a6ac18a865a9b69eba04031]
link Quiz to GestoreFile--><g id="link_Quiz_GestoreFile"><path codeLine="42" d="M306.85,376.28 C324.76,402.41 343.54,429.79 359.32,452.82 " fill="none" id="Quiz-GestoreFile" style="stroke:#181818;stroke-width:1.0;"/><text fill="#000000" font-family="sans-serif" font-size="13" lengthAdjust="spacing" textLength="44" x="339.5" y="419.0669">utilizza</text><text fill="#000000" font-family="sans-serif" font-size="13" lengthAdjust="spacing" textLength="8" x="303.234" y="395.7656">1</text><text fill="#000000" font-family="sans-serif" font-size="13" lengthAdjust="spacing" textLength="8" x="346.1793" y="442.0616">1</text></g><!--MD5=[918b10fc6c6ae171e00be192a25bfcc9]
link Domanda to Gioco--><g id="link_Domanda_Gioco"><path codeLine="43" d="M112.13,566.47 C122.46,590.93 134.44,619.32 144.34,642.76 " fill="none" id="Domanda-Gioco" style="stroke:#181818;stroke-width:1.0;"/><text fill="#000000" font-family="sans-serif" font-size="13" lengthAdjust="spacing" textLength="69" x="132.5" y="609.0669">appartiene</text><text fill="#000000" font-family="sans-serif" font-size="13" lengthAdjust="spacing" textLength="7" x="107.5833" y="586.3908">*</text><text fill="#000000" font-family="sans-serif" font-size="13" lengthAdjust="spacing" textLength="8" x="132.9425" y="631.9352">1</text></g><!--MD5=[538ff0e9ed1dd98490bc53c54dd16b25]
@startuml
class Domanda {
    +str testo
    +lista[str] opzioni
    +int risposta_corretta
    +int punti
}

class Quiz {
    +str file_quiz
    +lista[Domanda] domande
    +int punteggio
    +bool carica_domande()
    +bool salva_domande()
    +bool aggiungi_domanda()
    +bool mostra_domanda(domanda)
    +bool gioca()
    +bool menu_principale()
}

class Menu {
    +str titolo
    +lista[str] opzioni
    +bool attivo
}

class Gioco {
    +int punteggio_totale
    +bool in_corso
    +datetime data_partita
}

class GestoreFile {
    +str percorso
    +str encoding
    +bool salva_json()
    +bool carica_json()
}

Quiz "1" - - "*" Domanda : gestisce
Menu "1" - - "1" Quiz : mostra
Quiz "1" - - "1" Gioco : esegue
Quiz "1" - - "1" GestoreFile : utilizza
Domanda "*" - - "1" Gioco : appartiene
@enduml


--></g></svg>
